<svg id="next" xmlns="http://www.w3.org/2000/svg" width="24" height="24" viewBox="0 0 24 24">
  <rect id="vuesax_outline_next" data-name="vuesax/outline/next" width="24" height="24" fill="none"/>
  <g id="vuesax_outline_next-2" data-name="vuesax/outline/next">
    <g id="next-2" data-name="next">
      <path id="Vector" d="M3.3,16.19a3.278,3.278,0,0,1-1.65-.45A3.252,3.252,0,0,1,0,12.88V3.31A3.284,3.284,0,0,1,1.65.45a3.25,3.25,0,0,1,3.3,0l8.29,4.78a3.3,3.3,0,0,1,0,5.72L4.95,15.73A3.192,3.192,0,0,1,3.3,16.19Zm0-14.68a1.8,1.8,0,0,0-1.8,1.8v9.57a1.8,1.8,0,0,0,2.7,1.56l8.29-4.78a1.8,1.8,0,0,0,0-3.12L4.2,1.76A1.823,1.823,0,0,0,3.3,1.51Z" transform="translate(3.01 3.9)" fill="#343346"/>
      <path id="Vector-2" data-name="Vector" d="M.75,13.86A.755.755,0,0,1,0,13.11V.75A.755.755,0,0,1,.75,0,.755.755,0,0,1,1.5.75V13.11A.749.749,0,0,1,.75,13.86Z" transform="translate(19.49 5.07)" fill="#343346"/>
      <path id="Vector-3" data-name="Vector" d="M0,0H24V24H0Z" transform="translate(24 24) rotate(180)" fill="none"/>
    </g>
  </g>
</svg>
