<svg id="pause" xmlns="http://www.w3.org/2000/svg" width="24" height="24" viewBox="0 0 24 24">
  <rect id="vuesax_bold_pause" data-name="vuesax/bold/pause" width="24" height="24" fill="none"/>
  <g id="vuesax_bold_pause-2" data-name="vuesax/bold/pause">
    <g id="pause-2" data-name="pause">
      <path id="Vector" d="M7.65,16.11V1.89C7.65.54,7.08,0,5.64,0H2.01C.57,0,0,.54,0,1.89V16.11C0,17.46.57,18,2.01,18H5.64C7.08,18,7.65,17.46,7.65,16.11Z" transform="translate(3 3)" fill="#d6f5db"/>
      <path id="Vector-2" data-name="Vector" d="M7.65,16.11V1.89C7.65.54,7.08,0,5.64,0H2.01C.58,0,0,.54,0,1.89V16.11C0,17.46.57,18,2.01,18H5.64C7.08,18,7.65,17.46,7.65,16.11Z" transform="translate(13.35 3)" fill="#d6f5db"/>
      <path id="Vector-3" data-name="Vector" d="M0,0H24V24H0Z" fill="none"/>
    </g>
  </g>
</svg>
