<svg xmlns="http://www.w3.org/2000/svg" width="11.454" height="11.453" viewBox="0 0 11.454 11.453">
  <path id="share" d="M15.376,5.984a.477.477,0,0,0-.332.819l.776.776h-.438a6.844,6.844,0,0,0-6.837,6.837.477.477,0,1,0,.954,0,5.875,5.875,0,0,1,5.883-5.883h.438l-.776.776a.477.477,0,1,0,.674.674l1.549-1.549a.477.477,0,0,0,0-.759L15.718,6.129a.477.477,0,0,0-.342-.145Zm-7.309,0A2.074,2.074,0,0,0,6,8.056V15.37a2.074,2.074,0,0,0,2.067,2.067h7.314a2.074,2.074,0,0,0,2.067-2.067V12.826a.477.477,0,1,0-.954,0V15.37a1.106,1.106,0,0,1-1.113,1.113H8.067A1.106,1.106,0,0,1,6.954,15.37V8.056A1.106,1.106,0,0,1,8.067,6.943h2.544a.477.477,0,1,0,0-.954Z" transform="translate(-6 -5.984)" fill="#28283a" opacity="0.75"/>
</svg>
