<svg xmlns="http://www.w3.org/2000/svg" width="51.966" height="51.966" viewBox="0 0 51.966 51.966">
  <g id="logo" transform="translate(-270 -218.239)">
    <path id="Path_1" data-name="Path 1" d="M12.711,0H26.17V13.459A12.711,12.711,0,0,1,13.459,26.17,13.459,13.459,0,0,1,0,12.711,12.711,12.711,0,0,1,12.711,0Z" transform="translate(296.17 244.409) rotate(180)" fill="#d2e9ff"/>
    <path id="Path_3" data-name="Path 3" d="M12.711,0H26.17V13.459A12.711,12.711,0,0,1,13.459,26.17,13.459,13.459,0,0,1,0,12.711,12.711,12.711,0,0,1,12.711,0Z" transform="translate(295.796 244.035)" fill="#d2e9ff"/>
    <path id="Path_2" data-name="Path 2" d="M12.711,0H26.17V13.459A12.711,12.711,0,0,1,13.459,26.17,13.459,13.459,0,0,1,0,12.711,12.711,12.711,0,0,1,12.711,0Z" transform="translate(296.17 244.035) rotate(90)" fill="#d2e9ff"/>
    <path id="Path_4" data-name="Path 4" d="M12.711,0H26.17V13.459A12.711,12.711,0,0,1,13.459,26.17,13.459,13.459,0,0,1,0,12.711,12.711,12.711,0,0,1,12.711,0Z" transform="translate(295.796 244.409) rotate(-90)" fill="#d2e9ff"/>
  </g>
</svg>
