<svg xmlns="http://www.w3.org/2000/svg" width="17.611" height="17.611" viewBox="0 0 17.611 17.611">
  <g id="pause" transform="translate(-2.935 -2.935)">
    <path id="Vector" d="M7.485,15.762V1.849C7.485.528,6.927,0,5.518,0H1.967C.558,0,0,.528,0,1.849V15.762c0,1.321.558,1.849,1.967,1.849H5.518C6.927,17.611,7.485,17.083,7.485,15.762Z" transform="translate(2.935 2.935)" fill="#d6f5db"/>
    <path id="Vector-2" data-name="Vector" d="M7.485,15.762V1.849C7.485.528,6.927,0,5.518,0H1.967C.567,0,0,.528,0,1.849V15.762c0,1.321.558,1.849,1.967,1.849H5.518C6.927,17.611,7.485,17.083,7.485,15.762Z" transform="translate(13.061 2.935)" fill="#d6f5db"/>
  </g>
</svg>
