<svg id="Health" xmlns="http://www.w3.org/2000/svg" width="24" height="24" viewBox="0 0 24 24">
  <rect id="vuesax_outline_health" data-name="vuesax/outline/health" width="24" height="24" fill="none"/>
  <g id="vuesax_outline_health-2" data-name="vuesax/outline/health">
    <g id="health-2" data-name="health">
      <path id="Vector" d="M13.75,21.5h-6C2.32,21.5,0,19.18,0,13.75v-6C0,2.32,2.32,0,7.75,0h6c5.43,0,7.75,2.32,7.75,7.75v6C21.5,19.18,19.19,21.5,13.75,21.5Zm-6-20C3.14,1.5,1.5,3.14,1.5,7.75v6C1.5,18.36,3.14,20,7.75,20h6C18.36,20,20,18.36,20,13.75v-6c0-4.61-1.64-6.25-6.25-6.25Z" transform="translate(1.22 1.25)" fill="#fff"/>
      <path id="Vector-2" data-name="Vector" d="M10.21,8.221c-.24,0-.82-.09-1.16-.96L7.91,4.381a1.43,1.43,0,0,0-1.16-.79l-6,.02a.75.75,0,0,1,0-1.5l6-.02h.01a2.925,2.925,0,0,1,2.56,1.74l.91,2.3L12.29.911A1.273,1.273,0,0,1,13.38,0a1.254,1.254,0,0,1,1.18.78l1.04,1.97a1.477,1.477,0,0,0,1.11.67h4.06a.75.75,0,0,1,0,1.5H16.71a2.92,2.92,0,0,1-2.43-1.47l-.78-1.48-2.1,5.29A1.336,1.336,0,0,1,10.21,8.221Z" transform="translate(1.24 9.839)" fill="#fff"/>
      <path id="Vector-3" data-name="Vector" d="M0,0H24V24H0Z" fill="none"/>
    </g>
  </g>
</svg>
